<svg width="24" height="24" viewBox="0 0 24 24" fill="none" xmlns="http://www.w3.org/2000/svg">
<g opacity="0.8">
<path d="M4.0997 17.8096C4.15595 17.6043 4.03267 17.3188 3.91501 17.113C3.87854 17.0516 3.83879 16.9921 3.79595 16.9349C2.78685 15.4045 2.24901 13.6117 2.24907 11.7786C2.2322 6.51692 6.59532 2.24707 11.9906 2.24707C16.6959 2.24707 20.6241 5.50676 21.5414 9.83379C21.6791 10.4753 21.7487 11.1295 21.7491 11.7857C21.7491 17.0549 17.5542 21.3918 12.1589 21.3918C11.3006 21.3918 10.1433 21.1761 9.51188 20.9994C8.88048 20.8227 8.25001 20.5883 8.08735 20.5255C7.92084 20.4616 7.74401 20.4287 7.56563 20.4285C7.37113 20.4278 7.1785 20.4665 6.99938 20.5424L3.81938 21.6899C3.74989 21.7199 3.67624 21.7392 3.60095 21.7471C3.54139 21.7469 3.48247 21.7349 3.42757 21.7118C3.37268 21.6887 3.32292 21.6549 3.28116 21.6125C3.23939 21.57 3.20647 21.5197 3.18428 21.4644C3.16209 21.4092 3.15108 21.3501 3.15188 21.2905C3.1558 21.2383 3.16522 21.1866 3.18001 21.1363L4.0997 17.8096Z" stroke="#201D2F" stroke-width="1.49989" stroke-miterlimit="10" stroke-linecap="round"/>
<path d="M7.50098 13.4971C8.3294 13.4971 9.00098 12.8255 9.00098 11.9971C9.00098 11.1686 8.3294 10.4971 7.50098 10.4971C6.67255 10.4971 6.00098 11.1686 6.00098 11.9971C6.00098 12.8255 6.67255 13.4971 7.50098 13.4971Z" fill="#201D2F"/>
<path d="M12.0029 13.4966C12.8314 13.4966 13.5029 12.825 13.5029 11.9966C13.5029 11.1682 12.8314 10.4966 12.0029 10.4966C11.1745 10.4966 10.5029 11.1682 10.5029 11.9966C10.5029 12.825 11.1745 13.4966 12.0029 13.4966Z" fill="#201D2F"/>
<path d="M16.5005 13.4971C17.3289 13.4971 18.0005 12.8255 18.0005 11.9971C18.0005 11.1686 17.3289 10.4971 16.5005 10.4971C15.6721 10.4971 15.0005 11.1686 15.0005 11.9971C15.0005 12.8255 15.6721 13.4971 16.5005 13.4971Z" fill="#201D2F"/>
</g>
</svg>
