<svg width="125" height="123" viewBox="0 0 125 123" fill="none" xmlns="http://www.w3.org/2000/svg">
<path d="M58.3335 16.1961C54.9533 16.984 51.617 18.2095 47.6954 20.1353C41.3155 23.2575 36.0769 26.7735 30.575 31.6172C28.0874 33.8057 25.1023 37.0883 25.3071 37.4239C25.3657 37.5114 25.3218 37.5552 25.234 37.5406C25.073 37.4968 24.0926 38.664 24.078 38.912C24.0633 38.985 24.8974 38.3284 25.9363 37.4822C26.9606 36.6215 27.9264 35.819 28.0874 35.6877C29.1702 34.8124 32.6528 32.2884 34.3063 31.1942C42.5593 25.7085 49.7148 22.6155 57.0312 21.3608C57.5726 21.2733 58.0409 21.2149 58.0555 21.2441C58.0994 21.3316 58.7432 23.2575 59.6066 25.9711C60.0309 27.255 60.8211 29.6768 61.3771 31.3692C61.9186 33.047 63.338 37.3509 64.4939 40.9254C65.6646 44.4998 67.523 50.1605 68.6204 53.5161C69.7179 56.8717 70.5959 59.6875 70.5666 59.775C70.5373 59.8626 69.5862 60.2127 68.4741 60.5483C60.426 63.0139 53.8559 66.3257 46.5248 71.6071C38.3157 77.5305 29.5214 86.2113 21.5904 96.2197C19.5857 98.7437 18.6492 99.9692 18.6492 100.071C18.6492 100.101 20.3758 98.4081 22.4976 96.3218C24.6047 94.2209 27.0923 91.8136 28.0142 90.982C28.9361 90.1504 30.0335 89.1584 30.4286 88.7936C32.0382 87.2909 35.0819 84.8107 38.6962 82.0533C41.5935 79.8356 45.7492 77.1366 50.183 74.6126C51.5 73.8539 55.6703 71.826 57.4848 71.0527C63.4404 68.5142 69.0155 66.7926 75.2052 65.5817C76.449 65.3482 77.6343 65.144 77.8391 65.144C78.044 65.144 78.2049 65.1002 78.2049 65.0273C78.2049 64.9689 78.0001 64.3999 77.7513 63.758C77.5026 63.116 77.0782 61.9635 76.8148 61.2048C76.5514 60.4462 75.5271 57.645 74.5467 55.0043C73.5663 52.349 72.3079 48.935 71.7519 47.4177C71.1958 45.8858 70.5812 44.2226 70.3764 43.6974C69.1911 40.5315 66.9962 34.5497 66.645 33.5577C66.4255 32.9157 65.8255 31.3109 65.328 29.9832C64.8305 28.6556 64.2306 27.0215 63.9818 26.3358C63.7477 25.6501 63.2209 24.1766 62.8258 23.0532C62.4161 21.9298 62.0064 20.8064 61.9039 20.573C61.7869 20.325 61.3479 19.1724 60.9235 17.9906C60.4845 16.8089 60.0748 15.846 59.987 15.846C59.9139 15.846 59.1676 16.0065 58.3335 16.1961Z" fill="#027DC3"/>
<path d="M71.6933 26.9778C69.7764 27.6051 67.1718 28.568 66.8206 28.8015C66.6596 28.9036 66.7328 29.2538 67.2303 30.596C67.5522 31.5005 67.8888 32.3467 67.962 32.4489C68.0644 32.6239 68.4156 32.5656 69.9374 32.1862C70.9617 31.9382 71.825 31.7486 71.8397 31.7632C71.8982 31.8069 73.6541 37.1321 76.7856 46.7612C79.917 56.3173 82.8436 65.3045 83.7069 67.9014C84.1313 69.2291 84.4678 70.3233 84.4532 70.3525C84.4239 70.3671 83.1509 70.7172 81.6291 71.1111C77.327 72.2345 73.4785 73.3725 69.4984 74.7001C51.3683 80.7256 37.5988 88.7936 27.7655 99.1376C26.3022 100.67 23.8585 103.514 24.0048 103.514C24.0487 103.514 24.6633 103.004 25.351 102.376C33.4723 95.0379 44.725 88.7353 58.6116 83.7457C66.8938 80.7694 79.2 77.6618 89.2528 76.0132C90.5405 75.8089 91.6965 75.5901 91.8428 75.5317C92.0623 75.4442 92.033 75.2983 91.594 74.1166C91.316 73.3871 90.3649 70.8047 89.4723 68.3537C88.565 65.9027 86.9262 61.4383 85.8141 58.4328C84.702 55.4274 82.6534 49.8688 81.2779 46.1047C79.8877 42.326 77.9269 37.0154 76.9319 34.2871C75.9222 31.5589 74.8687 28.6556 74.576 27.8386C74.2102 26.8173 73.9614 26.3358 73.8151 26.3504C73.698 26.3504 72.7469 26.6276 71.6933 26.9778Z" fill="#014876"/>
<path d="M85.8872 37.2926C82.8435 38.2117 80.3998 39.0433 80.3998 39.1746C80.3998 39.2476 80.7071 40.1375 81.0876 41.1442C81.7461 42.9241 81.79 42.9971 82.1412 42.9241C82.346 42.8804 83.224 42.6907 84.102 42.5156C84.9653 42.3405 85.6969 42.2238 85.7116 42.253C85.7262 42.2822 86.1506 43.5515 86.6481 45.0834C87.1456 46.6007 88.5504 50.9046 89.7649 54.6395C90.9794 58.3744 92.4134 62.7367 92.9402 64.3416C94.184 68.1786 96.1448 74.1457 97.3154 77.691C97.8276 79.2521 98.2519 80.6089 98.2519 80.6818C98.2519 80.7694 97.052 81.0174 95.5888 81.2508C65.2695 85.9341 44.6956 93.3455 30.9407 104.55C28.3507 106.651 28.1459 106.899 29.9164 105.761C30.4432 105.426 31.7894 104.638 32.9162 104.01C48.5002 95.3297 74.3126 88.7936 103.154 86.2259C104.603 86.0945 105.817 85.9632 105.846 85.9195C105.876 85.8903 105.203 83.9791 104.354 81.6739C103.505 79.3542 101.939 75.1086 100.886 72.2199C99.8177 69.3312 98.3983 65.4504 97.7105 63.6121C97.0374 61.7592 95.8229 58.4766 95.0327 56.3173C94.2425 54.1435 93.1451 51.1964 92.6183 49.752C92.0769 48.3077 90.8623 44.9813 89.8966 42.3551C88.9308 39.729 88.0675 37.3947 87.965 37.1613L87.7894 36.7236L85.8872 37.2926Z" fill="#012F49"/>
</svg>
