<svg width="48" height="48" viewBox="0 0 48 48" fill="none" xmlns="http://www.w3.org/2000/svg">
<path d="M22.4001 6.32031C21.1021 6.62776 19.821 7.10601 18.3151 7.85755C15.8652 9.07595 13.8536 10.4481 11.7408 12.3383C10.7856 13.1923 9.6393 14.4734 9.71797 14.6043C9.74045 14.6385 9.72359 14.6556 9.68988 14.6499C9.62807 14.6328 9.25159 15.0883 9.24597 15.1851C9.24035 15.2135 9.56064 14.9573 9.95959 14.6271C10.3529 14.2912 10.7238 13.978 10.7856 13.9268C11.2014 13.5852 12.5387 12.6002 13.1737 12.1732C16.3428 10.0325 19.0905 8.82544 21.9 8.3358C22.1079 8.30164 22.2877 8.27887 22.2933 8.29025C22.3102 8.32442 22.5574 9.07595 22.889 10.1349C23.0519 10.636 23.3553 11.5811 23.5689 12.2415C23.7768 12.8963 24.3218 14.5759 24.7657 15.9708C25.2152 17.3657 25.9289 19.5747 26.3503 20.8842C26.7717 22.1937 27.1088 23.2926 27.0976 23.3267C27.0864 23.3609 26.7211 23.4975 26.2941 23.6285C23.2036 24.5907 20.6807 25.8831 17.8656 27.9441C14.7133 30.2557 11.3362 33.6433 8.29074 37.549C7.52093 38.534 7.16132 39.0122 7.16132 39.0521C7.16132 39.0635 7.82436 38.403 8.63912 37.5889C9.44826 36.769 10.4035 35.8296 10.7575 35.5051C11.1115 35.1805 11.5329 34.7934 11.6846 34.651C12.3027 34.0646 13.4715 33.0967 14.8594 32.0207C15.9719 31.1553 17.5677 30.102 19.2703 29.117C19.776 28.8209 21.3774 28.0295 22.0742 27.7278C24.3611 26.7371 26.502 26.0653 28.8788 25.5927C29.3565 25.5016 29.8116 25.4219 29.8903 25.4219C29.9689 25.4219 30.0307 25.4048 30.0307 25.3764C30.0307 25.3536 29.9521 25.1316 29.8565 24.881C29.761 24.6305 29.5981 24.1807 29.4969 23.8847C29.3958 23.5886 29.0025 22.4955 28.626 21.465C28.2495 20.4287 27.7663 19.0965 27.5527 18.5043C27.3392 17.9065 27.1032 17.2575 27.0246 17.0525C26.5694 15.817 25.7266 13.4827 25.5917 13.0955C25.5074 12.845 25.277 12.2188 25.086 11.7006C24.8949 11.1825 24.6646 10.5449 24.569 10.2773C24.4791 10.0097 24.2769 9.43464 24.1251 8.99625C23.9678 8.55785 23.8105 8.11945 23.7711 8.02835C23.7262 7.93157 23.5576 7.48178 23.3947 7.02061C23.2261 6.55944 23.0688 6.18367 23.0351 6.18367C23.007 6.18367 22.7204 6.2463 22.4001 6.32031Z" fill="#027DC3"/>
<path d="M27.5303 10.528C26.7942 10.7728 25.794 11.1486 25.6591 11.2397C25.5973 11.2796 25.6254 11.4162 25.8165 11.94C25.9401 12.293 26.0693 12.6232 26.0974 12.6631C26.1367 12.7314 26.2716 12.7086 26.856 12.5606C27.2493 12.4638 27.5808 12.3898 27.5864 12.3955C27.6089 12.4126 28.2832 14.4907 29.4857 18.2484C30.6881 21.9776 31.812 25.4848 32.1435 26.4982C32.3064 27.0163 32.4357 27.4433 32.43 27.4547C32.4188 27.4604 31.93 27.5971 31.3456 27.7508C29.6936 28.1892 28.2158 28.6333 26.6874 29.1514C19.7254 31.5028 14.4379 34.6513 10.662 38.688C10.1001 39.2858 9.16168 40.396 9.21787 40.396C9.23472 40.396 9.47072 40.1967 9.73482 39.9519C12.8534 37.0881 17.1744 34.6285 22.5069 32.6813C25.6872 31.5199 30.4128 30.3072 34.2731 29.6638C34.7676 29.5841 35.2115 29.4987 35.2677 29.4759C35.3519 29.4417 35.3407 29.3848 35.1721 28.9236C35.0654 28.639 34.7001 27.6312 34.3574 26.6747C34.009 25.7182 33.3797 23.976 32.9526 22.8032C32.5256 21.6303 31.7389 19.4611 31.2107 17.9922C30.6769 16.5176 29.924 14.4451 29.5419 13.3805C29.1542 12.3158 28.7496 11.1828 28.6372 10.8639C28.4967 10.4654 28.4012 10.2775 28.345 10.2832C28.3001 10.2832 27.9348 10.3914 27.5303 10.528Z" fill="#014876"/>
<path d="M32.9807 14.5532C31.812 14.9119 30.8736 15.2364 30.8736 15.2876C30.8736 15.3161 30.9916 15.6634 31.1377 16.0563C31.3906 16.7509 31.4074 16.7793 31.5423 16.7509C31.6209 16.7338 31.9581 16.6598 32.2952 16.5914C32.6267 16.5231 32.9077 16.4776 32.9133 16.489C32.9189 16.5003 33.0819 16.9957 33.2729 17.5935C33.464 18.1856 34.0034 19.8652 34.4698 21.3227C34.9362 22.7802 35.4868 24.4826 35.6891 25.1089C36.1667 26.6063 36.9197 28.9349 37.3692 30.3184C37.5659 30.9276 37.7288 31.4571 37.7288 31.4856C37.7288 31.5197 37.2681 31.6165 36.7062 31.7076C25.0635 33.5352 17.1632 36.4275 11.8813 40.8001C10.8867 41.62 10.8081 41.7167 11.488 41.2727C11.6903 41.1417 12.2072 40.8343 12.6399 40.5894C18.6241 37.2018 28.5361 34.6511 39.6112 33.6491C40.1675 33.5979 40.6338 33.5466 40.6451 33.5295C40.6563 33.5181 40.3978 32.7723 40.0719 31.8727C39.746 30.9675 39.1448 29.3107 38.7402 28.1834C38.33 27.056 37.785 25.5416 37.5209 24.8242C37.2624 24.1011 36.7961 22.8201 36.4926 21.9775C36.1892 21.1291 35.7678 19.9791 35.5655 19.4154C35.3576 18.8518 34.8912 17.5536 34.5203 16.5288C34.1495 15.504 33.818 14.593 33.7786 14.5019L33.7112 14.3311L32.9807 14.5532Z" fill="#012F49"/>
</svg>
